<svg width="60" height="60" viewBox="0 0 60 60" fill="none" xmlns="http://www.w3.org/2000/svg">
<path d="M35 24.75V20.5C36.375 19.9167 37.7817 19.4792 39.22 19.1875C40.6583 18.8958 42.1683 18.75 43.75 18.75C44.8333 18.75 45.8958 18.8333 46.9375 19C47.9792 19.1667 49 19.375 50 19.625V23.625C49 23.25 47.9892 22.9692 46.9675 22.7825C45.9458 22.5958 44.8733 22.5017 43.75 22.5C42.1667 22.5 40.6458 22.6983 39.1875 23.095C37.7292 23.4917 36.3333 24.0433 35 24.75ZM35 38.5V34.25C36.375 33.6667 37.7817 33.2292 39.22 32.9375C40.6583 32.6458 42.1683 32.5 43.75 32.5C44.8333 32.5 45.8958 32.5833 46.9375 32.75C47.9792 32.9167 49 33.125 50 33.375V37.375C49 37 47.9892 36.7183 46.9675 36.53C45.9458 36.3417 44.8733 36.2483 43.75 36.25C42.1667 36.25 40.6458 36.4375 39.1875 36.8125C37.7292 37.1875 36.3333 37.75 35 38.5ZM35 31.625V27.375C36.375 26.7917 37.7817 26.3542 39.22 26.0625C40.6583 25.7708 42.1683 25.625 43.75 25.625C44.8333 25.625 45.8958 25.7083 46.9375 25.875C47.9792 26.0417 49 26.25 50 26.5V30.5C49 30.125 47.9892 29.8433 46.9675 29.655C45.9458 29.4667 44.8733 29.3733 43.75 29.375C42.1667 29.375 40.6458 29.5733 39.1875 29.97C37.7292 30.3667 36.3333 30.9183 35 31.625ZM16.25 40C18.2083 40 20.115 40.2192 21.97 40.6575C23.825 41.0958 25.6683 41.7517 27.5 42.625V18C25.7917 17 23.9792 16.25 22.0625 15.75C20.1458 15.25 18.2083 15 16.25 15C14.75 15 13.26 15.1458 11.78 15.4375C10.3 15.7292 8.87333 16.1667 7.5 16.75V41.5C8.95833 41 10.4067 40.625 11.845 40.375C13.2833 40.125 14.7517 40 16.25 40ZM32.5 42.625C34.3333 41.75 36.1775 41.0942 38.0325 40.6575C39.8875 40.2208 41.7933 40.0017 43.75 40C45.25 40 46.7192 40.125 48.1575 40.375C49.5958 40.625 51.0433 41 52.5 41.5V16.75C51.125 16.1667 49.6975 15.7292 48.2175 15.4375C46.7375 15.1458 45.2483 15 43.75 15C41.7917 15 39.8542 15.25 37.9375 15.75C36.0208 16.25 34.2083 17 32.5 18V42.625ZM30 50C28 48.4167 25.8333 47.1875 23.5 46.3125C21.1667 45.4375 18.75 45 16.25 45C14.5 45 12.7817 45.2292 11.095 45.6875C9.40833 46.1458 7.79333 46.7917 6.25 47.625C5.375 48.0833 4.53167 48.0625 3.72 47.5625C2.90833 47.0625 2.50167 46.3333 2.5 45.375V15.25C2.5 14.7917 2.615 14.3542 2.845 13.9375C3.075 13.5208 3.41833 13.2083 3.875 13C5.79167 12 7.79167 11.25 9.875 10.75C11.9583 10.25 14.0833 10 16.25 10C18.6667 10 21.0317 10.3125 23.345 10.9375C25.6583 11.5625 27.8767 12.5 30 13.75C32.125 12.5 34.3442 11.5625 36.6575 10.9375C38.9708 10.3125 41.335 10 43.75 10C45.9167 10 48.0417 10.25 50.125 10.75C52.2083 11.25 54.2083 12 56.125 13C56.5833 13.2083 56.9275 13.5208 57.1575 13.9375C57.3875 14.3542 57.5017 14.7917 57.5 15.25V45.375C57.5 46.3333 57.0942 47.0625 56.2825 47.5625C55.4708 48.0625 54.6267 48.0833 53.75 47.625C52.2083 46.7917 50.5942 46.1458 48.9075 45.6875C47.2208 45.2292 45.5017 45 43.75 45C41.25 45 38.8333 45.4375 36.5 46.3125C34.1667 47.1875 32 48.4167 30 50Z" fill="black"/>
</svg>
