<svg width="58" height="58" viewBox="0 0 58 58" fill="none" xmlns="http://www.w3.org/2000/svg">
<path d="M29 2.41667L50.8708 15.4667C51.5958 15.9097 52.1597 16.5139 52.5625 17.2792C52.9653 18.0444 53.1667 18.85 53.1667 19.6958V45.9167C53.1667 47.2458 52.6938 48.3841 51.7481 49.3314C50.8024 50.2788 49.6641 50.7516 48.3333 50.75H9.66667C8.3375 50.75 7.20005 50.2771 6.25433 49.3314C5.30861 48.3857 4.83494 47.2475 4.83333 45.9167V19.6958C4.83333 18.85 5.03472 18.0444 5.4375 17.2792C5.84028 16.5139 6.40417 15.9097 7.12917 15.4667L29 2.41667ZM29 30.5708L47.85 19.3333L29 8.09584L10.15 19.3333L29 30.5708Z" fill="black"/>
</svg>
