<svg width="58" height="58" viewBox="0 0 58 58" fill="none" xmlns="http://www.w3.org/2000/svg">
<g clip-path="url(#clip0_43_245)">
<path d="M9.66667 58C8.3375 58 7.20005 57.5271 6.25433 56.5814C5.30861 55.6357 4.83494 54.4974 4.83333 53.1667C4.83172 51.8359 5.30539 50.6984 6.25433 49.7543C7.20328 48.8102 8.34072 48.3366 9.66667 48.3333H48.3333C49.6625 48.3333 50.8008 48.807 51.7481 49.7543C52.6954 50.7017 53.1683 51.8391 53.1667 53.1667C53.1651 54.4942 52.6922 55.6325 51.7481 56.5814C50.804 57.5304 49.6657 58.0032 48.3333 58H9.66667ZM14.5 38.6667H17.8833L36.7333 19.8771L34.9813 18.125L33.2896 16.4333L14.5 35.2833V38.6667ZM9.66667 41.0833V34.2563C9.66667 33.934 9.72708 33.6223 9.84792 33.321C9.96875 33.0197 10.15 32.7474 10.3917 32.5042L36.7333 6.22292C37.1764 5.77986 37.6903 5.4375 38.2752 5.19584C38.86 4.95417 39.4738 4.83334 40.1167 4.83334C40.7595 4.83334 41.3838 4.95417 41.9896 5.19584C42.5954 5.4375 43.1391 5.8 43.6208 6.28334L46.9437 9.66667C47.4271 10.1097 47.7791 10.6333 47.9998 11.2375C48.2206 11.8417 48.3317 12.466 48.3333 13.1104C48.3333 13.7146 48.2222 14.3091 47.9998 14.8939C47.7775 15.4788 47.4255 16.012 46.9437 16.4938L20.6625 42.775C20.4208 43.0167 20.1494 43.1979 19.8481 43.3188C19.5468 43.4396 19.2342 43.5 18.9104 43.5H12.0833C11.3986 43.5 10.8251 43.268 10.3627 42.804C9.90028 42.34 9.66828 41.7664 9.66667 41.0833ZM36.7333 19.8771L34.9813 18.125L33.2896 16.4333L36.7333 19.8771Z" fill="black"/>
</g>
<defs>
<clipPath id="clip0_43_245">
<rect width="58" height="58" fill="white"/>
</clipPath>
</defs>
</svg>
